<mxfile host="Electron" agent="Mozilla/5.0 (Windows NT 10.0; Win64; x64) AppleWebKit/537.36 (KHTML, like Gecko) draw.io/24.7.8 Chrome/128.0.6613.36 Electron/32.0.1 Safari/537.36" version="24.7.8">
  <diagram name="Страница — 1" id="8yi5JviRk8tUStjRkaAI">
    <mxGraphModel dx="1195" dy="703" grid="1" gridSize="10" guides="1" tooltips="1" connect="1" arrows="1" fold="1" page="1" pageScale="1" pageWidth="827" pageHeight="1169" math="0" shadow="0">
      <root>
        <mxCell id="0" />
        <mxCell id="1" parent="0" />
        <mxCell id="e6r7kJwP29MGwDs-VVoz-25" value="" style="rounded=0;whiteSpace=wrap;html=1;container=0;dropTarget=0;direction=east;connectable=1;absoluteArcSize=0;fillColor=#f5f5f5;fontColor=#333333;strokeColor=#666666;" vertex="1" parent="1">
          <mxGeometry x="180" y="70" width="460" height="670" as="geometry" />
        </mxCell>
        <mxCell id="e6r7kJwP29MGwDs-VVoz-2" style="rounded=0;orthogonalLoop=1;jettySize=auto;html=1;exitX=0.5;exitY=0.5;exitDx=0;exitDy=0;exitPerimeter=0;entryX=0;entryY=0.5;entryDx=0;entryDy=0;" edge="1" parent="1" source="e6r7kJwP29MGwDs-VVoz-1" target="e6r7kJwP29MGwDs-VVoz-3">
          <mxGeometry relative="1" as="geometry">
            <mxPoint x="240" y="160" as="targetPoint" />
          </mxGeometry>
        </mxCell>
        <mxCell id="e6r7kJwP29MGwDs-VVoz-1" value="Организатор" style="shape=umlActor;verticalLabelPosition=bottom;verticalAlign=top;html=1;outlineConnect=0;" vertex="1" parent="1">
          <mxGeometry x="90" y="110" width="60" height="100" as="geometry" />
        </mxCell>
        <mxCell id="e6r7kJwP29MGwDs-VVoz-18" style="edgeStyle=orthogonalEdgeStyle;rounded=0;orthogonalLoop=1;jettySize=auto;html=1;exitX=1;exitY=0.5;exitDx=0;exitDy=0;entryX=0;entryY=0.5;entryDx=0;entryDy=0;" edge="1" parent="1" source="e6r7kJwP29MGwDs-VVoz-3" target="e6r7kJwP29MGwDs-VVoz-4">
          <mxGeometry relative="1" as="geometry" />
        </mxCell>
        <mxCell id="e6r7kJwP29MGwDs-VVoz-3" value="Создание нового заказа" style="rounded=1;whiteSpace=wrap;html=1;" vertex="1" parent="1">
          <mxGeometry x="230" y="140" width="120" height="60" as="geometry" />
        </mxCell>
        <mxCell id="e6r7kJwP29MGwDs-VVoz-4" value="Изменение статуса заказа" style="rounded=1;whiteSpace=wrap;html=1;" vertex="1" parent="1">
          <mxGeometry x="414" y="140" width="120" height="60" as="geometry" />
        </mxCell>
        <mxCell id="e6r7kJwP29MGwDs-VVoz-9" style="rounded=0;orthogonalLoop=1;jettySize=auto;html=1;exitX=0.5;exitY=0.5;exitDx=0;exitDy=0;exitPerimeter=0;entryX=0;entryY=0.5;entryDx=0;entryDy=0;" edge="1" parent="1" source="e6r7kJwP29MGwDs-VVoz-6" target="e6r7kJwP29MGwDs-VVoz-7">
          <mxGeometry relative="1" as="geometry" />
        </mxCell>
        <mxCell id="e6r7kJwP29MGwDs-VVoz-6" value="Техник" style="shape=umlActor;verticalLabelPosition=bottom;verticalAlign=top;html=1;outlineConnect=0;" vertex="1" parent="1">
          <mxGeometry x="90" y="300" width="60" height="100" as="geometry" />
        </mxCell>
        <mxCell id="e6r7kJwP29MGwDs-VVoz-17" style="edgeStyle=orthogonalEdgeStyle;rounded=0;orthogonalLoop=1;jettySize=auto;html=1;exitX=1;exitY=0.5;exitDx=0;exitDy=0;entryX=0;entryY=0.5;entryDx=0;entryDy=0;" edge="1" parent="1" source="e6r7kJwP29MGwDs-VVoz-7" target="e6r7kJwP29MGwDs-VVoz-10">
          <mxGeometry relative="1" as="geometry" />
        </mxCell>
        <mxCell id="e6r7kJwP29MGwDs-VVoz-7" value="Просмотр заказов клиентов" style="rounded=1;whiteSpace=wrap;html=1;" vertex="1" parent="1">
          <mxGeometry x="260" y="320" width="120" height="60" as="geometry" />
        </mxCell>
        <mxCell id="e6r7kJwP29MGwDs-VVoz-10" value="Изменение статуса заказа" style="rounded=1;whiteSpace=wrap;html=1;" vertex="1" parent="1">
          <mxGeometry x="440" y="320" width="120" height="60" as="geometry" />
        </mxCell>
        <mxCell id="e6r7kJwP29MGwDs-VVoz-14" style="rounded=0;orthogonalLoop=1;jettySize=auto;html=1;exitX=0.5;exitY=0.5;exitDx=0;exitDy=0;exitPerimeter=0;entryX=0;entryY=0.5;entryDx=0;entryDy=0;" edge="1" parent="1" source="e6r7kJwP29MGwDs-VVoz-12" target="e6r7kJwP29MGwDs-VVoz-13">
          <mxGeometry relative="1" as="geometry" />
        </mxCell>
        <mxCell id="e6r7kJwP29MGwDs-VVoz-22" style="rounded=0;orthogonalLoop=1;jettySize=auto;html=1;exitX=0.5;exitY=0.5;exitDx=0;exitDy=0;exitPerimeter=0;entryX=0;entryY=0.5;entryDx=0;entryDy=0;" edge="1" parent="1" source="e6r7kJwP29MGwDs-VVoz-12" target="e6r7kJwP29MGwDs-VVoz-21">
          <mxGeometry relative="1" as="geometry" />
        </mxCell>
        <mxCell id="e6r7kJwP29MGwDs-VVoz-24" style="rounded=0;orthogonalLoop=1;jettySize=auto;html=1;exitX=0.5;exitY=0.5;exitDx=0;exitDy=0;exitPerimeter=0;entryX=0;entryY=0.5;entryDx=0;entryDy=0;" edge="1" parent="1" source="e6r7kJwP29MGwDs-VVoz-12" target="e6r7kJwP29MGwDs-VVoz-23">
          <mxGeometry relative="1" as="geometry" />
        </mxCell>
        <mxCell id="e6r7kJwP29MGwDs-VVoz-12" value="Заведующий&amp;nbsp;&lt;div&gt;подразделением&lt;/div&gt;" style="shape=umlActor;verticalLabelPosition=bottom;verticalAlign=top;html=1;outlineConnect=0;" vertex="1" parent="1">
          <mxGeometry x="90" y="490" width="60" height="100" as="geometry" />
        </mxCell>
        <mxCell id="e6r7kJwP29MGwDs-VVoz-19" style="edgeStyle=orthogonalEdgeStyle;rounded=0;orthogonalLoop=1;jettySize=auto;html=1;exitX=1;exitY=0.5;exitDx=0;exitDy=0;" edge="1" parent="1" source="e6r7kJwP29MGwDs-VVoz-13" target="e6r7kJwP29MGwDs-VVoz-15">
          <mxGeometry relative="1" as="geometry" />
        </mxCell>
        <mxCell id="e6r7kJwP29MGwDs-VVoz-13" value="Регистрация новых пользователей" style="rounded=1;whiteSpace=wrap;html=1;" vertex="1" parent="1">
          <mxGeometry x="260" y="450" width="120" height="60" as="geometry" />
        </mxCell>
        <mxCell id="e6r7kJwP29MGwDs-VVoz-15" value="Перевод пользователей в статус &quot;уволен&quot;" style="rounded=1;whiteSpace=wrap;html=1;" vertex="1" parent="1">
          <mxGeometry x="440" y="450" width="120" height="60" as="geometry" />
        </mxCell>
        <mxCell id="e6r7kJwP29MGwDs-VVoz-21" value="Назначение техников и организаторов на смены" style="rounded=1;whiteSpace=wrap;html=1;" vertex="1" parent="1">
          <mxGeometry x="354" y="520" width="120" height="60" as="geometry" />
        </mxCell>
        <mxCell id="e6r7kJwP29MGwDs-VVoz-23" value="Просмотр всех заказов" style="rounded=1;whiteSpace=wrap;html=1;" vertex="1" parent="1">
          <mxGeometry x="260" y="590" width="120" height="60" as="geometry" />
        </mxCell>
      </root>
    </mxGraphModel>
  </diagram>
</mxfile>
